<svg xmlns="http://www.w3.org/2000/svg" xmlns:xlink="http://www.w3.org/1999/xlink" viewBox="0 0 408.38 363.03"><defs><style>.a{fill:none;}.b{fill:url(#a);}.c{fill:#4a9eaa;}.d{fill:#70c1b3;}</style><radialGradient id="a" cx="272.53" cy="274.95" r="136.92" gradientUnits="userSpaceOnUse"><stop offset="0" stop-color="#247ba0"/><stop offset="0.33" stop-color="#287ea1"/><stop offset="0.63" stop-color="#3288a4"/><stop offset="0.92" stop-color="#4599a9"/><stop offset="0.98" stop-color="#4a9eaa"/></radialGradient></defs><circle class="a" cx="40" cy="150.13" r="20"/><circle class="a" cx="290.92" cy="333.03" r="10"/><circle class="a" cx="348.38" cy="60" r="40"/><path class="b" d="M342.53,275a70.16,70.16,0,1,1-19.67-48.63A70,70,0,0,1,342.53,275Z" transform="translate(-45.81 -68.48)"/><path class="c" d="M85.81,178.61a39.9,39.9,0,1,0,40,40A40.05,40.05,0,0,0,85.81,178.61Zm0,60a20,20,0,1,1,20-20A20,20,0,0,1,85.81,238.61Z" transform="translate(-45.81 -68.48)"/><path class="c" d="M336.73,371.52a30.6,30.6,0,0,0-7.82,1,30,30,0,1,0,7.82-1Zm0,40a10,10,0,1,1,10-10A10,10,0,0,1,336.73,411.52Z" transform="translate(-45.81 -68.48)"/><path class="c" d="M394.19,68.48a60,60,0,1,0,60,60A60.07,60.07,0,0,0,394.19,68.48Zm0,100a40,40,0,1,1,40-40A40,40,0,0,1,394.19,168.48Z" transform="translate(-45.81 -68.48)"/><path class="d" d="M207.8,248.28A70.2,70.2,0,0,0,203.57,263l-82.83-24.88a39.73,39.73,0,0,0,4.75-14.54Z" transform="translate(-45.81 -68.48)"/><path class="d" d="M362.06,179.12l-39.2,47.2a70.15,70.15,0,0,0-11.75-9.78l39.2-47.2A60.25,60.25,0,0,0,362.06,179.12Z" transform="translate(-45.81 -68.48)"/><path class="d" d="M328.91,372.55a30.06,30.06,0,0,0-13.26,7.65l-20.18-39.11a70,70,0,0,0,13.81-6.57Z" transform="translate(-45.81 -68.48)"/></svg>