<svg id="Layer_1" data-name="Layer 1" xmlns="http://www.w3.org/2000/svg" viewBox="0 0 96 36"><defs><style>.cls-1{fill:#dedfe3;stroke:#dedfe3;stroke-miterlimit:10;}.cls-2{opacity:0.42;}</style></defs><rect class="cls-1" x="0.5" y="0.5" width="95" height="35" rx="5"/><g class="cls-2"><path d="M14.87,24a5.2,5.2,0,0,1-2.59-.63,4.52,4.52,0,0,1-1.77-1.78,5.49,5.49,0,0,1-.63-2.69,5.28,5.28,0,0,1,.65-2.69,4.55,4.55,0,0,1,1.79-1.77,5.31,5.31,0,0,1,2.61-.63,5.83,5.83,0,0,1,1.42.16,5.58,5.58,0,0,1,1.14.41l-.17,1.53a8.29,8.29,0,0,0-1.12-.41,4.72,4.72,0,0,0-1.28-.16,3.31,3.31,0,0,0-1.81.46A3,3,0,0,0,12,17.1a4.74,4.74,0,0,0,0,3.65A2.91,2.91,0,0,0,13.09,22a3.23,3.23,0,0,0,1.78.47,5.2,5.2,0,0,0,1.3-.16,6.37,6.37,0,0,0,1.15-.42l.17,1.54a6.23,6.23,0,0,1-2.62.57Z" transform="translate(-2 -2)"/><path d="M21.71,24a3.5,3.5,0,0,1-1.91-.49,3.18,3.18,0,0,1-1.21-1.31,4,4,0,0,1-.41-1.8,4.09,4.09,0,0,1,.41-1.82,3.27,3.27,0,0,1,1.21-1.32,3.95,3.95,0,0,1,3.81,0,3.27,3.27,0,0,1,1.21,1.32,4,4,0,0,1,.41,1.82,3.87,3.87,0,0,1-.41,1.8,3.18,3.18,0,0,1-1.21,1.31A3.51,3.51,0,0,1,21.71,24Zm0-1.31A1.71,1.71,0,0,0,23.13,22a2.61,2.61,0,0,0,.5-1.66,2.65,2.65,0,0,0-.5-1.68,1.93,1.93,0,0,0-2.85,0,2.59,2.59,0,0,0-.51,1.68A2.55,2.55,0,0,0,20.28,22,1.71,1.71,0,0,0,21.71,22.65Z" transform="translate(-2 -2)"/><path d="M26.47,23.82V16.87h1.3L27.93,18l-.33-.28A3.86,3.86,0,0,1,28.66,17,3.2,3.2,0,0,1,30,16.75a2.86,2.86,0,0,1,1,.17,2.18,2.18,0,0,1,.77.5,2.63,2.63,0,0,1,.54.88l-.4-.12a2.4,2.4,0,0,1,1-1.05,3.05,3.05,0,0,1,1.56-.38,2.94,2.94,0,0,1,1.53.37,2.15,2.15,0,0,1,.89,1.07,4.25,4.25,0,0,1,.29,1.68v3.95H35.52V20a2.46,2.46,0,0,0-.32-1.43,1.26,1.26,0,0,0-1.1-.46,1.81,1.81,0,0,0-.74.14,1.16,1.16,0,0,0-.47.4,1.72,1.72,0,0,0-.25.59,3.13,3.13,0,0,0-.08.7v3.92H31V20.05a3.34,3.34,0,0,0-.17-1.16,1.12,1.12,0,0,0-.48-.63,1.51,1.51,0,0,0-.8-.19,2,2,0,0,0-1.08.29,2,2,0,0,0-.7.84l.26-.84v5.46Z" transform="translate(-2 -2)"/><path d="M38.67,15.64V14h1.57v1.62Zm0,8.18V16.87h1.57v7Z" transform="translate(-2 -2)"/><path d="M41.89,23.82V16.87h1.4l.13,1.31L43,17.77A3.58,3.58,0,0,1,44.08,17a3.27,3.27,0,0,1,1.29-.26,2.38,2.38,0,0,1,2.05.88A3.81,3.81,0,0,1,48.08,20v3.86H46.51V20.05a2.52,2.52,0,0,0-.35-1.5A1.38,1.38,0,0,0,45,18.07a2,2,0,0,0-1.08.29,1.91,1.91,0,0,0-.7.85l.26-.83v5.44Z" transform="translate(-2 -2)"/><path d="M52.43,27.34a5.83,5.83,0,0,1-1.7-.23,2.57,2.57,0,0,1-1.14-.69,1.58,1.58,0,0,1-.42-1.1,1.48,1.48,0,0,1,.31-.94,2.39,2.39,0,0,1,.85-.69,1.45,1.45,0,0,1-.47-.41.94.94,0,0,1-.17-.54,1,1,0,0,1,.19-.58,1.37,1.37,0,0,1,.55-.41,2.44,2.44,0,0,1-.83-1,3,3,0,0,1-.29-1.31,2.81,2.81,0,0,1,.34-1.37,2.53,2.53,0,0,1,1-1,3,3,0,0,1,1.55-.38,2.8,2.8,0,0,1,.88.13,2.65,2.65,0,0,1,.74.35,2.63,2.63,0,0,1,.66-.24,3.68,3.68,0,0,1,.92-.11h.32l-.13,1h-.74l-.31,0a2.37,2.37,0,0,1,.36.73,3.11,3.11,0,0,1-.2,2.23,2.45,2.45,0,0,1-1,1,2.94,2.94,0,0,1-1.53.38,2.77,2.77,0,0,1-.42,0l-.4-.08a.28.28,0,0,0-.21.28c0,.11.07.2.21.28a3.13,3.13,0,0,0,.68.17l1.43.21a3.65,3.65,0,0,1,1.75.64,1.62,1.62,0,0,1,.62,1.37,1.83,1.83,0,0,1-.4,1.2,2.52,2.52,0,0,1-1.17.78A5.49,5.49,0,0,1,52.43,27.34Zm.08-1.24a3.41,3.41,0,0,0,1.4-.23.75.75,0,0,0,.47-.69.64.64,0,0,0-.32-.59,2.75,2.75,0,0,0-1-.31L51.39,24a2,2,0,0,0-.61.4.86.86,0,0,0-.25.63.83.83,0,0,0,.53.79A3.42,3.42,0,0,0,52.51,26.1Zm-.35-5a1.27,1.27,0,0,0,1-.43,1.79,1.79,0,0,0,.35-1.15,1.77,1.77,0,0,0-.35-1.13,1.48,1.48,0,0,0-2.09,0,1.72,1.72,0,0,0-.35,1.13,1.74,1.74,0,0,0,.35,1.15A1.27,1.27,0,0,0,52.16,21.06Z" transform="translate(-2 -2)"/><path d="M62.9,24a7.28,7.28,0,0,1-1.22-.11,9,9,0,0,1-1.16-.26,5,5,0,0,1-.85-.32l.2-1.72c.3.14.63.28,1,.42a9.71,9.71,0,0,0,1.12.33,5.84,5.84,0,0,0,1.18.13,2.36,2.36,0,0,0,1.27-.31,1,1,0,0,0,.48-.93,1.13,1.13,0,0,0-.26-.79,2.09,2.09,0,0,0-.78-.53c-.35-.15-.79-.31-1.33-.49a8.65,8.65,0,0,1-1.44-.6,2.83,2.83,0,0,1-1-.88,2.38,2.38,0,0,1-.38-1.39,2.5,2.5,0,0,1,1.59-2.39,4.69,4.69,0,0,1,1.95-.35A7,7,0,0,1,65,14a8.38,8.38,0,0,1,1.36.44l-.17,1.68a8.3,8.3,0,0,0-1.53-.6,5.75,5.75,0,0,0-1.49-.2,2.63,2.63,0,0,0-1.29.28.94.94,0,0,0-.47.88,1,1,0,0,0,.24.71,2,2,0,0,0,.7.47c.31.13.68.26,1.13.4a9.77,9.77,0,0,1,1.78.73,3,3,0,0,1,1.1,1,2.54,2.54,0,0,1,.37,1.42,2.87,2.87,0,0,1-.17,1,2.2,2.2,0,0,1-.59.91,3.13,3.13,0,0,1-1.16.66A5.9,5.9,0,0,1,62.9,24Z" transform="translate(-2 -2)"/><path d="M71.06,24a3.49,3.49,0,0,1-1.9-.49A3.18,3.18,0,0,1,68,22.16a3.87,3.87,0,0,1-.41-1.8A4,4,0,0,1,68,18.54a3.27,3.27,0,0,1,1.21-1.32,3.58,3.58,0,0,1,1.9-.49,3.61,3.61,0,0,1,1.91.49,3.34,3.34,0,0,1,1.21,1.32,4.09,4.09,0,0,1,.41,1.82,4,4,0,0,1-.41,1.8A3.25,3.25,0,0,1,73,23.47,3.52,3.52,0,0,1,71.06,24Zm0-1.31A1.73,1.73,0,0,0,72.49,22a2.61,2.61,0,0,0,.5-1.66,2.65,2.65,0,0,0-.5-1.68,1.73,1.73,0,0,0-1.43-.63,1.71,1.71,0,0,0-1.42.63,2.59,2.59,0,0,0-.51,1.68A2.55,2.55,0,0,0,69.64,22,1.71,1.71,0,0,0,71.06,22.65Z" transform="translate(-2 -2)"/><path d="M78.94,24A3.52,3.52,0,0,1,77,23.47a3.16,3.16,0,0,1-1.2-1.31,3.88,3.88,0,0,1-.42-1.8,4,4,0,0,1,.42-1.82A3.25,3.25,0,0,1,77,17.22a3.95,3.95,0,0,1,3.81,0,3.27,3.27,0,0,1,1.21,1.32,4,4,0,0,1,.42,1.82,3.88,3.88,0,0,1-.42,1.8,3.18,3.18,0,0,1-1.21,1.31A3.51,3.51,0,0,1,78.94,24Zm0-1.31A1.71,1.71,0,0,0,80.36,22a2.55,2.55,0,0,0,.5-1.66,2.59,2.59,0,0,0-.5-1.68,1.71,1.71,0,0,0-1.42-.63,1.73,1.73,0,0,0-1.43.63,2.59,2.59,0,0,0-.5,1.68,2.55,2.55,0,0,0,.5,1.66A1.73,1.73,0,0,0,78.94,22.65Z" transform="translate(-2 -2)"/><path d="M83.7,23.82V16.87h1.39l.13,1.31-.43-.41a3.62,3.62,0,0,1,1.1-.76,3.2,3.2,0,0,1,1.29-.26,2.41,2.41,0,0,1,2,.88A3.87,3.87,0,0,1,89.88,20v3.86H88.32V20.05a2.51,2.51,0,0,0-.36-1.5,1.37,1.37,0,0,0-1.17-.48A1.82,1.82,0,0,0,85,19.21l.26-.83v5.44Z" transform="translate(-2 -2)"/></g></svg>