<svg id="Layer_1" data-name="Layer 1" xmlns="http://www.w3.org/2000/svg" viewBox="0 0 9.02 10"><defs><style>.cls-1{fill:#f57722;}</style></defs><path class="cls-1" d="M5.22,4.13A2.55,2.55,0,0,0,4.42,6,2.51,2.51,0,0,0,4.93,7.5l-1,1a.87.87,0,0,0-.28-.05.75.75,0,0,0-.55.23.79.79,0,0,0-.23.56.76.76,0,0,0,.23.55.75.75,0,0,0,.55.23.79.79,0,0,0,.56-.23.76.76,0,0,0,.23-.55.64.64,0,0,0,0-.24l1-1A2.54,2.54,0,1,0,7.36,3.47V2.27a.91.91,0,0,0,.55-.84.92.92,0,1,0-1.83,0,.91.91,0,0,0,.55.84V3.46a2.44,2.44,0,0,0-.84.27C5.25,3.32,3.5,2.05,2.5,1.29a1.24,1.24,0,0,0,0-.27,1,1,0,1,0-.5.87ZM7,7.33A1.35,1.35,0,1,1,8.32,6,1.36,1.36,0,0,1,7,7.33Z" transform="translate(-0.49)"/></svg>