<svg id="Layer_1" data-name="Layer 1"
    xmlns="http://www.w3.org/2000/svg" viewBox="0 0 25 15.06">
    <defs>
        <style>.cls-1{fill:#26547C;}</style>
    </defs>
    <path class="cls-1" d="M3.11,20A3.12,3.12,0,0,1,.39,18.38a3,3,0,0,1,.08-3.11l5.61-8.8a3.14,3.14,0,0,1,5.44.15,3,3,0,0,1-.17,3.1l-5.6,8.8A3.12,3.12,0,0,1,3.11,20Z" transform="translate(0 -4.97)"/>
    <path class="cls-1" d="M12.72,20A3.13,3.13,0,0,1,10,18.38a3,3,0,0,1,.09-3.1l5.59-8.77a3.13,3.13,0,0,1,5.46.12,3,3,0,0,1-.2,3.12l-5.59,8.77A3.12,3.12,0,0,1,12.72,20Z" transform="translate(0 -4.97)"/>
    <ellipse class="cls-1" cx="22.12" cy="12.24" rx="2.88" ry="2.82"/>
</svg>