<svg id="qb_logo" data-name="QB Logo" xmlns="http://www.w3.org/2000/svg" viewBox="0 0 40 40">
<defs>
    <style>.cls-1{fill:#26547C}.cls-2{fill:#fff;}</style>
</defs>
<circle class="cls-1" cx="20" cy="20" r="20"/>
<path class="cls-2" d="M5.56,20a7.75,7.75,0,0,0,7.77,7.78h1.11V24.89H13.33a4.89,4.89,0,0,1,0-9.78H16V30.22a2.89,2.89,0,0,0,2.89,2.89h0V12.22H13.33A7.75,7.75,0,0,0,5.56,20Zm21.11-7.78H25.56v2.89h1.11a4.89,4.89,0,0,1,0,9.78H24V9.78a2.89,2.89,0,0,0-2.89-2.89V27.78h5.56a7.78,7.78,0,0,0,0-15.56Z"/>
</svg>