<svg xmlns="http://www.w3.org/2000/svg" viewBox="0 0 210.25 57.07"><defs><style>.a{fill:#fff;}</style></defs><circle class="a" cx="6.29" cy="23.59" r="3.14"/><circle class="a" cx="45.73" cy="52.33" r="1.57"/><circle class="a" cx="54.76" cy="9.43" r="6.28"/><path class="a" d="M47.16,33.53a11,11,0,0,1-22,0h0a11.83,11.83,0,0,1,.16-1.88,10.92,10.92,0,0,1,15-8.3,11.2,11.2,0,0,1,1.87,1,10.59,10.59,0,0,1,1.87,1.53A11,11,0,0,1,47.16,33.53Z" transform="translate(-0.52 -1.08)"/><path class="a" d="M6.82,18.39a6.29,6.29,0,1,0,5.49,9.34,6.18,6.18,0,0,0,.74-2.28,5.11,5.11,0,0,0,0-.78A6.28,6.28,0,0,0,6.82,18.39Zm0,9.42A3.15,3.15,0,1,1,10,24.67a3.14,3.14,0,0,1-3.15,3.14Z" transform="translate(-0.52 -1.08)"/><path class="a" d="M46.25,48.7a5,5,0,0,0-1.22.16,4.72,4.72,0,1,0,1.22-.16Zm0,6.29a1.58,1.58,0,1,1,1.57-1.58h0A1.57,1.57,0,0,1,46.25,55Z" transform="translate(-0.52 -1.08)"/><path class="a" d="M55.28,1.08a9.44,9.44,0,1,0,9.43,9.44h0A9.45,9.45,0,0,0,55.28,1.08Zm0,15.71a6.29,6.29,0,1,1,6.29-6.28,6.29,6.29,0,0,1-6.29,6.28Z" transform="translate(-0.52 -1.08)"/><path class="a" d="M26,29.33a10.93,10.93,0,0,0-.64,2.32l-13-3.92a6.19,6.19,0,0,0,.75-2.28Z" transform="translate(-0.52 -1.08)"/><path class="a" d="M50.23,18.46l-6.16,7.42a10.76,10.76,0,0,0-1.84-1.53l6.16-7.42A9,9,0,0,0,50.23,18.46Z" transform="translate(-0.52 -1.08)"/><path class="a" d="M45,48.86a4.63,4.63,0,0,0-2.09,1.2l-3.17-6.14a11.65,11.65,0,0,0,2.17-1Z" transform="translate(-0.52 -1.08)"/><path class="a" d="M87,24.43h1.44l-8.81,25.1H74.21L85.08,19h5.28l10.87,30.56H95.81Zm7.12,17.86H81.32V37.4H94.11Z" transform="translate(-0.52 -1.08)"/><path class="a" d="M112.87,50a9.91,9.91,0,0,1-5.22-1.25,7.67,7.67,0,0,1-3.07-3.52,12.88,12.88,0,0,1-1-5.31V27.07h4.1V38.85a19.49,19.49,0,0,0,.19,2.95,6.4,6.4,0,0,0,.76,2.28,3.8,3.8,0,0,0,1.58,1.47,7.14,7.14,0,0,0,5.3,0,3.83,3.83,0,0,0,1.57-1.47,6.84,6.84,0,0,0,.77-2.28,19.15,19.15,0,0,0,.2-2.93V27.07h4.11V39.9a12.91,12.91,0,0,1-1,5.31,7.7,7.7,0,0,1-3,3.52A10,10,0,0,1,112.87,50Z" transform="translate(-0.52 -1.08)"/><path class="a" d="M126.86,49.53V27.07h8.22a10.26,10.26,0,0,1,4.06.74,5.77,5.77,0,0,1,2.71,2.24,7,7,0,0,1,1,3.85,6.66,6.66,0,0,1-1.05,3.93,7.45,7.45,0,0,1-2.77,2.3l5.07,9.43h-4.59l-4.33-8.34H131v8.34ZM131,37.75h3c1.69,0,2.87-.34,3.53-1a3.6,3.6,0,0,0,1-2.61,3.56,3.56,0,0,0-1-2.65,4.85,4.85,0,0,0-3.39-.95h-3.21Z" transform="translate(-0.52 -1.08)"/><path class="a" d="M147,49.53V27.07h14.37v4H151.15v4.78H159v4h-7.89v5.74h10.49v4Z" transform="translate(-0.52 -1.08)"/><path class="a" d="M174.22,50A9.91,9.91,0,0,1,169,48.73a7.67,7.67,0,0,1-3.07-3.52,12.72,12.72,0,0,1-1-5.31V27.07H169V38.85a20.48,20.48,0,0,0,.21,2.92,6.6,6.6,0,0,0,.76,2.28,3.7,3.7,0,0,0,1.59,1.47,7,7,0,0,0,5.29,0,3.8,3.8,0,0,0,1.58-1.47,6.6,6.6,0,0,0,.76-2.28,17.93,17.93,0,0,0,.21-2.92V27.07h4.11V39.9a12.89,12.89,0,0,1-1,5.31,7.6,7.6,0,0,1-3.06,3.52A10,10,0,0,1,174.22,50Z" transform="translate(-0.52 -1.08)"/><path class="a" d="M186.86,49.53,190,27.07h3.37l5.48,10.27,5.46-10.27h3.37l3.11,22.46H206.5l-2.15-16.88,1.12.23-6.64,11.93-6.67-11.9,1.12-.23-2.15,16.85Z" transform="translate(-0.52 -1.08)"/></svg>