<svg xmlns="http://www.w3.org/2000/svg" viewBox="0 0 327.6 88.9"><defs><style>.a{fill:#f4f4f6;}.b{fill:none;}</style></defs><path class="a" d="M155.48,91.94h2.25L144,131.05h-8.44l16.94-47.62h8.23l16.94,47.62h-8.44Zm11.09,27.82H146.64v-7.62h19.93Z" transform="translate(-20.76 -55.55)"/><path class="a" d="M195.81,131.75a15.5,15.5,0,0,1-8.14-1.95,11.94,11.94,0,0,1-4.78-5.48,20.13,20.13,0,0,1-1.58-8.27v-20h6.4V114.4A29.07,29.07,0,0,0,188,119a10.17,10.17,0,0,0,1.18,3.55,5.83,5.83,0,0,0,2.47,2.29,11,11,0,0,0,8.25,0,5.86,5.86,0,0,0,2.46-2.29,10.38,10.38,0,0,0,1.19-3.55,30.39,30.39,0,0,0,.32-4.56V96.05h6.4v20a20.14,20.14,0,0,1-1.57,8.27A12,12,0,0,1,204,129.8,15.45,15.45,0,0,1,195.81,131.75Z" transform="translate(-20.76 -55.55)"/><path class="a" d="M217.61,131.05v-35h12.8a16.09,16.09,0,0,1,6.34,1.15,9,9,0,0,1,4.21,3.5,10.85,10.85,0,0,1,1.5,6,10.18,10.18,0,0,1-1.64,6.11,11.59,11.59,0,0,1-4.31,3.59l7.9,14.7h-7.15l-6.75-13H224v13ZM224,112.7h4.7c2.63,0,4.47-.54,5.5-1.62a5.65,5.65,0,0,0,1.55-4.08,5.53,5.53,0,0,0-1.52-4.12q-1.53-1.48-5.28-1.48h-5Z" transform="translate(-20.76 -55.55)"/><path class="a" d="M248.91,131.05v-35h22.4v6.2H255.46v7.45h12.3v6.2h-12.3v8.95h16.35v6.2Z" transform="translate(-20.76 -55.55)"/><path class="a" d="M291.41,131.75a15.48,15.48,0,0,1-8.14-1.95,11.94,11.94,0,0,1-4.78-5.48,20,20,0,0,1-1.58-8.27v-20h6.4V114.4a30.39,30.39,0,0,0,.32,4.56,10.38,10.38,0,0,0,1.19,3.55,5.83,5.83,0,0,0,2.47,2.29,11,11,0,0,0,8.25,0,5.86,5.86,0,0,0,2.46-2.29,10.17,10.17,0,0,0,1.18-3.55,29.07,29.07,0,0,0,.33-4.56V96.05h6.4v20a20.13,20.13,0,0,1-1.58,8.27,11.89,11.89,0,0,1-4.78,5.48A15.48,15.48,0,0,1,291.41,131.75Z" transform="translate(-20.76 -55.55)"/><path class="a" d="M311.11,131.05l4.85-35h5.25l8.55,16,8.5-16h5.25l4.85,35h-6.65l-3.35-26.3,1.75.35-10.35,18.6-10.4-18.55,1.75-.35-3.35,26.25Z" transform="translate(-20.76 -55.55)"/><circle class="b" cx="9.79" cy="36.76" r="4.9"/><circle class="b" cx="71.24" cy="81.55" r="2.45"/><circle class="b" cx="85.31" cy="14.69" r="9.79"/><path class="a" d="M93.42,106.11a17.14,17.14,0,1,1-34.28,0,17.64,17.64,0,0,1,.25-2.93,17.34,17.34,0,0,1,1-3.6,17.14,17.14,0,0,1,25.3-7.77A16.86,16.86,0,0,1,88.6,94.2,17.1,17.1,0,0,1,93.42,106.11Z" transform="translate(-20.76 -55.55)"/><path class="a" d="M30.56,82.52a9.8,9.8,0,1,0,8.55,14.56,9.63,9.63,0,0,0,1.16-3.56,9.46,9.46,0,0,0,.08-1.21A9.81,9.81,0,0,0,30.56,82.52Zm0,14.69a4.9,4.9,0,1,1,4.9-4.9A4.9,4.9,0,0,1,30.56,97.21Z" transform="translate(-20.76 -55.55)"/><path class="a" d="M92,129.76a7.52,7.52,0,0,0-1.91.25,7.36,7.36,0,1,0,1.91-.25Zm0,9.79a2.45,2.45,0,1,1,2.45-2.45A2.45,2.45,0,0,1,92,139.55Z" transform="translate(-20.76 -55.55)"/><path class="a" d="M106.07,55.55a14.7,14.7,0,1,0,14.69,14.69A14.71,14.71,0,0,0,106.07,55.55Zm0,24.49a9.8,9.8,0,1,1,9.8-9.8A9.8,9.8,0,0,1,106.07,80Z" transform="translate(-20.76 -55.55)"/><path class="a" d="M60.43,99.58a17.34,17.34,0,0,0-1,3.6l-20.28-6.1a9.63,9.63,0,0,0,1.16-3.56Z" transform="translate(-20.76 -55.55)"/><path class="a" d="M98.2,82.64,88.6,94.2a16.86,16.86,0,0,0-2.87-2.39l9.6-11.56A14.59,14.59,0,0,0,98.2,82.64Z" transform="translate(-20.76 -55.55)"/><path class="a" d="M90.09,130a7.36,7.36,0,0,0-3.25,1.87L81.9,122.3a17.15,17.15,0,0,0,3.38-1.6Z" transform="translate(-20.76 -55.55)"/></svg>