<svg xmlns="http://www.w3.org/2000/svg" xmlns:xlink="http://www.w3.org/1999/xlink" viewBox="0 0 399.74 237.73"><defs><style>.a,.h{fill:none;}.a,.b{stroke:#e6e7e8;}.a{stroke-linecap:round;stroke-linejoin:round;stroke-width:5px;}.b,.e{fill:#fff;}.b{stroke-miterlimit:10;stroke-width:0.5px;}.c{fill:#f57722;}.d{fill:#2ca01c;}.f{fill:url(#a);}.g{fill:#26547c;}.i{fill:url(#b);}.j{fill:#4a9eaa;}.k{fill:#71c1b3;}.l{fill:#257ba0;}</style><radialGradient id="a" cx="945.33" cy="1612.27" r="0" gradientTransform="matrix(2500, 0, 0, -2310.78, -2362947.25, 3725768.29)" gradientUnits="userSpaceOnUse"><stop offset="0" stop-color="#ffb900"/><stop offset="0.6" stop-color="#f95d8f"/><stop offset="1" stop-color="#f95353"/></radialGradient><radialGradient id="b" cx="72.26" cy="300.32" r="0.08" gradientTransform="matrix(251, 0, 0, -251, -17961.53, 75602.23)" gradientUnits="userSpaceOnUse"><stop offset="0" stop-color="#267ba0"/><stop offset="0.34" stop-color="#2a7ea1"/><stop offset="0.65" stop-color="#3489a4"/><stop offset="0.94" stop-color="#479ba9"/><stop offset="0.98" stop-color="#4a9eaa"/></radialGradient></defs><line class="a" x1="75.28" y1="110.46" x2="207.21" y2="158.94"/><line class="a" x1="153.12" y1="70.69" x2="207.21" y2="158.94"/><line class="a" x1="243.84" y1="72.3" x2="207.21" y2="158.94"/><line class="a" x1="337.43" y1="127.99" x2="207.21" y2="158.94"/><rect class="b" x="78.04" y="158.94" width="248.99" height="78.54" rx="9.43"/><circle class="b" cx="38.27" cy="101.75" r="38.02"/><path class="c" d="M82.14,119.57A13.18,13.18,0,0,0,78,129.23,13,13,0,0,0,80.64,137l-5.16,5.17a4.27,4.27,0,0,0-1.45-.26,3.89,3.89,0,0,0-2.84,1.19A4.08,4.08,0,0,0,70,146a4.06,4.06,0,0,0,4,4,4.06,4.06,0,0,0,2.89-1.19A3.89,3.89,0,0,0,78.11,146a3.23,3.23,0,0,0,0-1.24l5.17-5.17a13.12,13.12,0,1,0,9.92-23.4V110A4.69,4.69,0,0,0,96,105.62a4.76,4.76,0,0,0-9.46-1,5.46,5.46,0,0,0,0,1A4.7,4.7,0,0,0,89.43,110v6.15a12.76,12.76,0,0,0-4.34,1.39c-2.79-2.11-11.83-8.68-17-12.6a6.55,6.55,0,0,0,0-1.4,5.16,5.16,0,1,0-2.58,4.5Zm9.2,16.53A7,7,0,1,1,98.16,129v.25A7,7,0,0,1,91.34,136.1Z" transform="translate(-42.79 -22.43)"/><circle class="d" cx="261.81" cy="38.38" r="38.38"/><path class="e" d="M276.88,60.81a14.9,14.9,0,0,0,14.9,14.89h2.14V70.17h-2.14a9.37,9.37,0,1,1,0-18.73h5.14v29A5.53,5.53,0,0,0,302.45,86h0V45.92H291.78A14.89,14.89,0,0,0,276.88,60.81Zm40.53-14.89h-2.15v5.52h2.15a9.37,9.37,0,1,1,0,18.73h-5.14v-29a5.52,5.52,0,0,0-5.53-5.53h0V75.7h10.67a14.89,14.89,0,1,0,0-29.78Z" transform="translate(-42.79 -22.43)"/><circle class="b" cx="361.46" cy="98.53" r="38.02"/><path class="f" d="M419.74,121.09a11.14,11.14,0,1,0,11.08,11.19v-.05A11.14,11.14,0,0,0,419.74,121.09Zm-28.92,0A11.14,11.14,0,1,0,402,132.23h0A11.14,11.14,0,0,0,390.82,121.09Zm25.54-13.89a11.09,11.09,0,1,1-11.08-11.09h0A11.13,11.13,0,0,1,416.36,107.2Z" transform="translate(-42.79 -22.43)"/><circle class="b" cx="133.07" cy="38.38" r="38.02"/><path class="g" d="M178.39,39.5a11.3,11.3,0,0,0-8.78,3.62c-.13-1.29-1-2.91-4.26-2.91h-7.1v7.43h2.88c.52,0,.65.13.65.64V82.12h8.46V68.43a11,11,0,0,0,7.74,2.9c8.27,0,14-6.52,14-15.88,0-9.55-5.48-16-13.62-16M176.65,64c-4.52,0-6.59-4.32-6.59-8.39,0-6.33,3.49-8.59,6.72-8.59,4,0,6.65,3.42,6.65,8.53,0,5.81-3.36,8.45-6.78,8.45" transform="translate(-42.79 -22.43)"/><circle class="h" cx="103.71" cy="192.38" r="3.14"/><circle class="h" cx="143.14" cy="221.12" r="1.57"/><circle class="h" cx="152.17" cy="178.21" r="6.28"/><path class="i" d="M186.84,223.66a11,11,0,0,1-22,0h0a11.84,11.84,0,0,1,.17-1.88,10.84,10.84,0,0,1,.64-2.31,11,11,0,0,1,14.36-6,11.15,11.15,0,0,1,1.87,1,10.65,10.65,0,0,1,1.87,1.54A10.91,10.91,0,0,1,186.84,223.66Z" transform="translate(-42.79 -22.43)"/><path class="j" d="M146.5,208.52a6.29,6.29,0,1,0,5.49,9.34,6.13,6.13,0,0,0,.75-2.28,6.81,6.81,0,0,0,0-.78A6.31,6.31,0,0,0,146.5,208.52Zm0,9.43a3.15,3.15,0,1,1,3.15-3.15A3.15,3.15,0,0,1,146.5,218Z" transform="translate(-42.79 -22.43)"/><path class="j" d="M185.93,238.84a4.59,4.59,0,0,0-1.22.16,4.72,4.72,0,1,0,1.22-.16Zm0,6.28a1.57,1.57,0,1,1,1.58-1.57h0a1.57,1.57,0,0,1-1.58,1.57Z" transform="translate(-42.79 -22.43)"/><path class="j" d="M195,191.21a9.44,9.44,0,1,0,9.43,9.44h0A9.45,9.45,0,0,0,195,191.21Zm0,15.72a6.29,6.29,0,1,1,6.29-6.29,6.29,6.29,0,0,1-6.29,6.29Z" transform="translate(-42.79 -22.43)"/><path class="k" d="M165.67,219.47a11.46,11.46,0,0,0-.64,2.31l-13-3.92a6.3,6.3,0,0,0,.74-2.28Z" transform="translate(-42.79 -22.43)"/><path class="k" d="M189.91,208.6,183.75,216a10.44,10.44,0,0,0-1.84-1.54l6.16-7.42A9.35,9.35,0,0,0,189.91,208.6Z" transform="translate(-42.79 -22.43)"/><path class="k" d="M184.71,239a4.72,4.72,0,0,0-2.09,1.2l-3.17-6.14a10.79,10.79,0,0,0,2.17-1Z" transform="translate(-42.79 -22.43)"/><path class="l" d="M226.67,214.57h1.44l-8.81,25.09h-5.41l10.87-30.56H230l10.87,30.56h-5.42Zm7.12,17.85H221v-4.89h12.79Z" transform="translate(-42.79 -22.43)"/><path class="l" d="M252.55,240.11a9.91,9.91,0,0,1-5.22-1.25,7.65,7.65,0,0,1-3.07-3.51,12.91,12.91,0,0,1-1-5.31V217.2h4.1V229a19.4,19.4,0,0,0,.19,3,6.6,6.6,0,0,0,.76,2.28,3.68,3.68,0,0,0,1.58,1.47,7,7,0,0,0,5.3,0,3.86,3.86,0,0,0,1.58-1.47,6.6,6.6,0,0,0,.76-2.28,20.48,20.48,0,0,0,.21-2.92V217.2h4.1V230a12.91,12.91,0,0,1-1,5.31,7.68,7.68,0,0,1-3,3.51A9.85,9.85,0,0,1,252.55,240.11Z" transform="translate(-42.79 -22.43)"/><path class="l" d="M266.54,239.66V217.2h8.22a10.34,10.34,0,0,1,4.07.74,5.82,5.82,0,0,1,2.7,2.25,6.93,6.93,0,0,1,1,3.85,6.55,6.55,0,0,1-1.05,3.92,7.45,7.45,0,0,1-2.77,2.3l5.07,9.44h-4.59l-4.33-8.35h-4.18v8.35Zm4.1-11.77h3a4.8,4.8,0,0,0,3.53-1,3.6,3.6,0,0,0,1-2.62,3.53,3.53,0,0,0-1-2.64,4.8,4.8,0,0,0-3.39-1h-3.21Z" transform="translate(-42.79 -22.43)"/><path class="l" d="M286.63,239.66V217.2H301v4H290.83V226h7.9v4h-7.9v5.75h10.5v4Z" transform="translate(-42.79 -22.43)"/><path class="l" d="M313.9,240.11a9.91,9.91,0,0,1-5.22-1.25,7.65,7.65,0,0,1-3.07-3.51,12.91,12.91,0,0,1-1-5.31V217.2h4.11V229a19.15,19.15,0,0,0,.2,2.93,6.69,6.69,0,0,0,.76,2.27,3.76,3.76,0,0,0,1.59,1.47,7,7,0,0,0,5.29,0,3.68,3.68,0,0,0,1.58-1.47,6.48,6.48,0,0,0,.76-2.27,18,18,0,0,0,.21-2.93V217.2h4.11V230a13.07,13.07,0,0,1-1,5.31,7.71,7.71,0,0,1-3.07,3.51A10,10,0,0,1,313.9,240.11Z" transform="translate(-42.79 -22.43)"/><path class="l" d="M326.55,239.66l3.11-22.46H333l5.48,10.27L344,217.2h3.37l3.11,22.46h-4.27L344,222.79l1.13.22L338.51,235,331.84,223l1.12-.22-2.15,16.84Z" transform="translate(-42.79 -22.43)"/></svg>