<svg id="Layer_1" data-name="Layer 1"
    xmlns="http://www.w3.org/2000/svg" viewBox="0 0 25 17.5">
    <defs>
        <style>.cls-1{fill:#26547C;}.cls-2{fill:#fff;}</style>
    </defs>
    <path class="cls-1" d="M10.4,5.66A4.39,4.39,0,0,1,13.57,4.3a4.44,4.44,0,0,1,3.86,2.28A5.43,5.43,0,1,1,19.61,17a5.29,5.29,0,0,1-1.06-.1,3.93,3.93,0,0,1-5.16,1.62A4.5,4.5,0,0,1,5,18.31a4,4,0,0,1-.86.09,4.22,4.22,0,0,1-2.08-7.87,4.76,4.76,0,0,1-.4-1.93A4.85,4.85,0,0,1,10.4,5.66" transform="translate(0 -3.75)"/>
    <path class="cls-2" d="M3.62,12.83s0,0,0,.05l.14.09a1.6,1.6,0,0,0,.75.17c.51,0,.83-.27.83-.71h0c0-.4-.36-.55-.69-.66h0c-.25-.08-.47-.16-.47-.32h0c0-.15.13-.25.33-.25a1.4,1.4,0,0,1,.65.17s0,0,.07,0l.1-.28a0,0,0,0,0,0-.06,1.39,1.39,0,0,0-.73-.2h0a.72.72,0,0,0-.8.69h0c0,.43.36.57.7.67h.06c.24.08.46.15.46.32h0c0,.16-.14.27-.37.27a1.21,1.21,0,0,1-.66-.19l-.08-.05a0,0,0,0,0-.07,0l-.1.29Z" transform="translate(0 -3.75)"/>
    <path class="cls-2" d="M11.13,12.83s0,0,0,.05l.14.09a1.6,1.6,0,0,0,.75.17c.51,0,.83-.27.83-.71h0c0-.4-.36-.55-.7-.66h0c-.25-.08-.47-.16-.47-.32h0c0-.15.12-.25.32-.25a1.44,1.44,0,0,1,.66.17,0,0,0,0,0,.06,0L12.8,11a0,0,0,0,0,0-.06,1.42,1.42,0,0,0-.73-.2h0a.72.72,0,0,0-.8.69h0c0,.43.36.57.7.67h0c.25.08.46.15.46.32h0c0,.16-.13.27-.36.27a1.21,1.21,0,0,1-.66-.19l-.08-.05s-.06,0-.07,0l-.1.29Z" transform="translate(0 -3.75)"/>
    <path class="cls-2" d="M16.25,12a1.1,1.1,0,0,1-.13.59.54.54,0,0,1-.84,0,1.1,1.1,0,0,1-.13-.59,1,1,0,0,1,.13-.57.53.53,0,0,1,.84,0,1,1,0,0,1,.13.57m.43-.46a1.18,1.18,0,0,0-.19-.37,1,1,0,0,0-.33-.25,1.22,1.22,0,0,0-.92,0,1,1,0,0,0-.33.25,1,1,0,0,0-.19.37,1.43,1.43,0,0,0-.07.46,1.45,1.45,0,0,0,.07.47,1,1,0,0,0,.19.37.88.88,0,0,0,.33.24,1.22,1.22,0,0,0,.92,0,.88.88,0,0,0,.33-.24,1.18,1.18,0,0,0,.19-.37,1.78,1.78,0,0,0,.06-.47,1.76,1.76,0,0,0-.06-.46" transform="translate(0 -3.75)"/>
    <path class="cls-2" d="M20.2,12.68a0,0,0,0,0-.06,0l-.2.05a.86.86,0,0,1-.23,0,.66.66,0,0,1-.49-.18A.77.77,0,0,1,19,12a.87.87,0,0,1,.16-.56.54.54,0,0,1,.47-.21,1.31,1.31,0,0,1,.46.07s0,0,.05,0,.06-.18.1-.3,0,0,0,0L20,10.81l-.32,0a1.21,1.21,0,0,0-.48.09,1,1,0,0,0-.34.25.91.91,0,0,0-.21.37,1.39,1.39,0,0,0-.07.46,1.24,1.24,0,0,0,.28.86,1.1,1.1,0,0,0,.85.31,1.79,1.79,0,0,0,.6-.1,0,0,0,0,0,0-.06l-.1-.29Z" transform="translate(0 -3.75)"/>
    <path class="cls-2" d="M21,11.73a.76.76,0,0,1,.11-.34.46.46,0,0,1,.42-.21.43.43,0,0,1,.4.21.65.65,0,0,1,.1.34Zm1.44-.31a.93.93,0,0,0-.19-.33.62.62,0,0,0-.27-.21.93.93,0,0,0-.42-.09,1.21,1.21,0,0,0-.48.09,1.06,1.06,0,0,0-.33.26,1.1,1.1,0,0,0-.2.37,1.78,1.78,0,0,0-.06.47,1.39,1.39,0,0,0,.07.46.85.85,0,0,0,.21.37,1,1,0,0,0,.36.24,1.23,1.23,0,0,0,.53.08,1.59,1.59,0,0,0,.73-.14s0,0,0-.07l-.1-.26a0,0,0,0,0-.05,0,1.4,1.4,0,0,1-.6.11.69.69,0,0,1-.49-.17.7.7,0,0,1-.17-.49h1.45a0,0,0,0,0,0,0,1.65,1.65,0,0,0,0-.63Z" transform="translate(0 -3.75)"/>
    <path class="cls-2" d="M9.34,11.73a.76.76,0,0,1,.12-.34.51.51,0,0,1,.82,0,.65.65,0,0,1,.09.34Zm1.44-.31a.79.79,0,0,0-.18-.33.71.71,0,0,0-.28-.21.91.91,0,0,0-.41-.09,1.17,1.17,0,0,0-.48.09,1,1,0,0,0-.34.26,1.08,1.08,0,0,0-.19.37,1.78,1.78,0,0,0-.07.47,1.7,1.7,0,0,0,.07.46,1,1,0,0,0,.21.37,1.13,1.13,0,0,0,.36.24,1.26,1.26,0,0,0,.53.08,1.51,1.51,0,0,0,.73-.14s0,0,0-.07l-.09-.26a.05.05,0,0,0-.06,0,1.34,1.34,0,0,1-.59.11.71.71,0,0,1-.5-.17.76.76,0,0,1-.17-.49h1.45a.05.05,0,0,0,.05,0,1.54,1.54,0,0,0-.05-.63Z" transform="translate(0 -3.75)"/>
    <path class="cls-2" d="M6.21,12.68c-.06,0-.07-.06-.08-.09a.33.33,0,0,1,0-.19.31.31,0,0,1,.13-.28.64.64,0,0,1,.42-.1,2.66,2.66,0,0,1,.39,0v.66H7a2.58,2.58,0,0,1-.39,0,.65.65,0,0,1-.42-.08m.58-1H6.56a1.36,1.36,0,0,0-.36,0,.83.83,0,0,0-.3.14.61.61,0,0,0-.21.24.76.76,0,0,0,0,.66.6.6,0,0,0,.19.23.86.86,0,0,0,.29.13,2.38,2.38,0,0,0,.39,0l.44,0L7.35,13l.1,0a.05.05,0,0,0,0-.05V11.63A.82.82,0,0,0,7.26,11a1,1,0,0,0-.67-.2,2.56,2.56,0,0,0-.39,0,1.53,1.53,0,0,0-.45.17.06.06,0,0,0,0,.06l.1.27s0,0,0,0h0a1.41,1.41,0,0,1,.63-.14.58.58,0,0,1,.35.09c.08.06.12.15.12.34v.07l-.23,0" transform="translate(0 -3.75)"/>
    <path class="cls-2" d="M18.47,10.91a0,0,0,0,0,0-.05.89.89,0,0,0-.24,0,.77.77,0,0,0-.38.06.61.61,0,0,0-.24.18v-.18a0,0,0,0,0,0,0h-.37a0,0,0,0,0-.05,0V13a0,0,0,0,0,.05.05h.38a0,0,0,0,0,0-.05V12a1.35,1.35,0,0,1,0-.38.54.54,0,0,1,.13-.21.42.42,0,0,1,.18-.11.68.68,0,0,1,.19,0l.16,0s0,0,.05,0,.1-.27.11-.31" transform="translate(0 -3.75)"/>
    <path class="cls-2" d="M14.9,9.91l-.14,0-.2,0a.8.8,0,0,0-.61.22,1.2,1.2,0,0,0-.3.66v.1h-.33s0,0-.05,0l0,.3s0,.05,0,.05h.32L13.25,13a3.11,3.11,0,0,1-.09.36.62.62,0,0,1-.1.2.35.35,0,0,1-.13.11l-.17,0h-.12l-.08,0s0,0-.05,0-.1.27-.11.3a.06.06,0,0,0,0,.06l.14,0,.21,0a1,1,0,0,0,.36-.06.67.67,0,0,0,.26-.19.85.85,0,0,0,.19-.32,3.4,3.4,0,0,0,.13-.49L14,11.23h.48a.05.05,0,0,0,.05-.05l0-.3s0,0,0,0H14.1s0-.18.08-.33a.49.49,0,0,1,.1-.16.37.37,0,0,1,.12-.07.41.41,0,0,1,.16,0h.12l.07,0c.05,0,.06,0,.07,0l.11-.3a0,0,0,0,0,0-.05" transform="translate(0 -3.75)"/>
    <path class="cls-2" d="M8.43,13a0,0,0,0,1,0,.05H8A0,0,0,0,1,8,13V10a0,0,0,0,1,0,0h.38a0,0,0,0,1,0,0V13Z" transform="translate(0 -3.75)"/>
</svg>